<?xml version="1.0" standalone="no"?>
<!DOCTYPE svg PUBLIC "-//W3C//DTD SVG 20010904//EN"
 "http://www.w3.org/TR/2001/REC-SVG-20010904/DTD/svg10.dtd">
<svg version="1.0" xmlns="http://www.w3.org/2000/svg"
 width="250.000000pt" height="250.000000pt" viewBox="0 0 250.000000 250.000000"
 preserveAspectRatio="xMidYMid meet">
<metadata>
Created by potrace 1.14, written by Peter Selinger 2001-2017
</metadata>
<g transform="translate(0.000000,250.000000) scale(0.100000,-0.100000)"
fill="#000000" stroke="none">
<path d="M1065 2485 c-196 -30 -411 -120 -562 -234 -482 -363 -637 -1007 -373
-1547 70 -145 150 -253 263 -360 323 -306 770 -415 1207 -294 106 29 303 128
397 199 44 33 116 98 159 144 306 323 415 770 294 1207 -29 106 -128 303 -199
397 -74 99 -203 222 -299 286 -94 63 -258 140 -352 167 -173 48 -371 61 -535
35z m762 -694 c92 -40 159 -132 188 -253 20 -87 21 -438 0 -525 -45 -190 -156
-284 -337 -285 -115 -1 -180 24 -249 92 -99 98 -124 207 -117 505 4 162 8 199
27 253 45 132 117 204 228 232 66 16 202 6 260 -19z m-857 -516 l0 -535 -105
0 -105 0 0 410 c0 330 -3 410 -13 410 -7 0 -60 -16 -117 -35 -57 -19 -110 -35
-117 -35 -11 0 -13 18 -11 81 l3 82 215 77 c118 43 223 78 233 79 16 1 17 -31
17 -534z"/>
<path d="M1633 1653 c-13 -2 -36 -17 -51 -33 -49 -48 -57 -100 -57 -355 1
-206 3 -235 21 -280 49 -123 192 -128 247 -7 21 44 22 61 22 297 0 235 -1 253
-22 297 -11 25 -32 53 -45 61 -26 18 -82 27 -115 20z"/>
</g>
</svg>
